<svg xmlns="http://www.w3.org/2000/svg" viewBox="0 0 128 128" fill="none">
  <!-- tecora toolbar / store icon: tau in a circle -->
  <circle cx="64" cy="64" r="64" fill="#111111"/>
  <circle cx="64" cy="64" r="58" stroke="#404040" stroke-width="2"/>
  <g fill="#ffffff" transform="translate(64 66) scale(0.2) translate(-220 -205)">
    <path d="m217.7 147.93-5.3726 53.177q-1.2972 13.896-1.2972 27.793 0 26.496 6.1147 32.24 6.2997 5.5587 14.267 5.5587 17.787 0 21.123-22.42h6.8557q-6.1147 51.509-40.948 51.509-36.501 0-36.501-41.874 0-21.122 4.0749-52.621l6.8557-53.362h-18.343q-15.193 0-23.716 5.1882-8.3378 5.0027-15.564 20.381h-6.6702q5.9292-20.381 14.081-32.24 8.1528-12.044 15.564-16.12 7.4117-4.2616 22.049-4.2616h91.16v27.052z"/>
  </g>
</svg>
